<?xml version="1.0" encoding="UTF-8"?>
<!-- The Best Svg Icon site in the world: iconSvg.co, Visit us! https://iconsvg.co -->
<svg fill="#000000" width="800px" height="800px" version="1.1" viewBox="144 144 512 512" xmlns="http://www.w3.org/2000/svg">
 <path d="m517.57 366.41h33.566v-100.76c0-9.2656-7.5273-16.793-16.793-16.793h-100.76v33.59h60.223l-93.809 93.809-93.809-93.809 60.219-0.015624v-33.574h-100.76c-9.2656 0-16.793 7.5273-16.793 16.793v100.76h33.59v-60.223l93.805 93.812-93.805 93.805-0.019531-60.219-33.57-0.003907v100.76c0 9.2695 7.5273 16.797 16.793 16.797h100.76v-33.582h-60.223l93.812-93.816 93.809 93.812-60.219 0.011718-0.003906 33.574h100.76c9.2656 0 16.793-7.5273 16.793-16.797v-100.76h-33.59v60.219l-93.801-93.801 93.805-93.824z"/>
</svg>